<svg width="64" height="66" viewBox="0 0 64 66" fill="none" xmlns="http://www.w3.org/2000/svg">
<g filter="url(#filter0_d_203_10531)">
<path d="M55.33 2.03C55.383 2.011 55.44 2 55.5 2C55.776 2 56 2.224 56 2.5C56 2.638 55.944 2.763 55.854 2.854L25.854 32.854C25.763 32.944 25.638 33 25.5 33C25.413 33 25.331 32.978 25.26 32.939L4.26 21.439C4.105 21.354 4 21.189 4 21C4 20.784 4.137 20.6 4.33 20.53L55.33 2.03Z" fill="#0966C2"/>
<path d="M59.97 6.67C59.989 6.617 60 6.56 60 6.5C60 6.224 59.776 6 59.5 6C59.362 6 59.237 6.056 59.146 6.146L29.146 36.146C29.056 36.237 29 36.362 29 36.5C29 36.587 29.022 36.668 29.061 36.74L40.561 57.74C40.646 57.895 40.811 58 41 58C41.216 58 41.4 57.863 41.47 57.67L59.97 6.67Z" fill="#0966C2"/>
</g>
<defs>
<filter id="filter0_d_203_10531" x="-2" y="0" width="68" height="68" filterUnits="userSpaceOnUse" color-interpolation-filters="sRGB">
<feFlood flood-opacity="0" result="BackgroundImageFix"/>
<feColorMatrix in="SourceAlpha" type="matrix" values="0 0 0 0 0 0 0 0 0 0 0 0 0 0 0 0 0 0 127 0" result="hardAlpha"/>
<feOffset dy="4"/>
<feGaussianBlur stdDeviation="2"/>
<feComposite in2="hardAlpha" operator="out"/>
<feColorMatrix type="matrix" values="0 0 0 0 0 0 0 0 0 0 0 0 0 0 0 0 0 0 0.25 0"/>
<feBlend mode="normal" in2="BackgroundImageFix" result="effect1_dropShadow_203_10531"/>
<feBlend mode="normal" in="SourceGraphic" in2="effect1_dropShadow_203_10531" result="shape"/>
</filter>
</defs>
</svg>
